HIERARCHY
ROOT pelvis
{
  OFFSET 0 100 0
  CHANNELS 6 Xposition Yposition Zposition Zrotation Xrotation Yrotation
  JOINT pelvis_right_femur
  {
    OFFSET -10.78128 -3.44521 -0.5502486
    CHANNELS 3 Zrotation Xrotation Yrotation
    JOINT right_femur_tibia
    {
      OFFSET -0.8047443 -44.0398 -0.1307829
      CHANNELS 3 Zrotation Xrotation Yrotation
      JOINT right_tibia_foot
      {
        OFFSET 3.006224 -47.83518 -5
        CHANNELS 3 Zrotation Xrotation Yrotation
        End Site
        {
          OFFSET 0 -5 15
        }
      }
    }
  }
  JOINT pelvis_left_femur
  {
    OFFSET 10.78128 -3.44521 -0.5502486
    CHANNELS 3 Zrotation Xrotation Yrotation
    JOINT left_femur_tibia
    {
      OFFSET 0.8047443 -44.0398 -0.1307829
      CHANNELS 3 Zrotation Xrotation Yrotation
      JOINT left_tibia_foot
      {
        OFFSET -4.370144 -48.10324 -4.275266
        CHANNELS 3 Zrotation Xrotation Yrotation
        End Site
        {
          OFFSET 0 -5 15
        }
      }
    }
  }
  JOINT pelvis_spine1
  {
    OFFSET 0 6.468898 -3.129235
    CHANNELS 3 Zrotation Xrotation Yrotation
    JOINT spine1
    {
      OFFSET 0 23.15396 4.99043
      CHANNELS 3 Zrotation Xrotation Yrotation
      JOINT spine2
      {
        OFFSET 0 20.79997 -5.064912
        CHANNELS 3 Zrotation Xrotation Yrotation
        JOINT neck
        {
          OFFSET 0 14.38658 9.616178
          CHANNELS 3 Zrotation Xrotation Yrotation
          End Site
          {
            OFFSET 0 20 0
          }
        }
      }
      JOINT right_manubrium
      {
        OFFSET -5.722621 16.35077 3.967754
        CHANNELS 3 Zrotation Xrotation Yrotation
        JOINT right_clavicle
        {
          OFFSET -13.16364 1.694482 -4.693211
          CHANNELS 3 Zrotation Xrotation Yrotation
          JOINT right_humerus
          {
            OFFSET -28.5034 -0.3100689 -2.792744
            CHANNELS 3 Zrotation Xrotation Yrotation
            JOINT right_radius
            {
              OFFSET -25.15693 0.02248979 -1.271978
              CHANNELS 3 Zrotation Xrotation Yrotation
              End Site
              {
                OFFSET -15 0 0
              }
            }
          }
        }
      }
      JOINT left_manubrium
      {
        OFFSET 5.722621 16.35077 3.967754
        CHANNELS 3 Zrotation Xrotation Yrotation
        JOINT left_clavicle
        {
          OFFSET 13.16364 1.694482 -4.693211
          CHANNELS 3 Zrotation Xrotation Yrotation
          JOINT left_humerus
          {
            OFFSET 29.39168 -1.063119 -2.237045
            CHANNELS 3 Zrotation Xrotation Yrotation
            JOINT left_radius
            {
              OFFSET 24.59957 -0.9528479 0.9047498
              CHANNELS 3 Zrotation Xrotation Yrotation
              End Site
              {
                OFFSET 15 -0 -0
              }
            }
          }
        }
      }
    }
  }
}
MOTION
Frames: 13
Frame Time: 0.0416666666667
0 103.5113 0 1.402898 -2.069251 0.03623499 2.47691 -14.2364 6.834964 -0 37.00933 -0 -6.446026 -16.58439 -4.002547 -6.845986 13.28443 -25.7877 -0 4.799589 -0 -0.8832994 -20.92754 22.58598 -3.975027 -2.944428 3.287495 1.900172 7.254889 -7.395183 0.77613 23.96791 7.938418 4.196434 -21.90451 8.511226 6.505755 -18.5503 10.97809 86.25353 36.67779 -21.09805 -0 0 16.04912 -7.887199 8.002968 4.609066 4.438366 -18.44049 -3.351829 -100.7501 41.29514 28.37081 0 0 -19.60024 -11.94496 18.09164 27.39951
0.1577741 103.399 1.012411 1.436456 -2.347335 0.04262119 2.322159 -13.84626 6.694315 -0 38.12826 -0 -6.172576 -16.42825 -4.217133 -6.825009 13.38809 -25.19171 -0 4.946204 -0 -0.7509611 -20.29866 22.478 -4.010126 -2.991443 3.137931 1.905311 7.475955 -7.557552 0.6273711 23.97092 8.022145 4.109672 -21.54383 8.428548 6.643442 -18.40619 11.07088 86.36677 36.9118 -21.20218 -0 0 15.62313 -8.730345 8.584285 5.02599 4.26477 -18.58777 -3.535926 -99.58016 40.77492 27.19053 0 0 -19.75643 -11.59285 17.85449 26.83196
0.3145858 102.9838 2.494464 1.238416 -1.650752 0.1638582 2.315469 -17.65304 6.062253 -0 33.63362 -0 -6.108364 -14.4251 -4.333182 -6.575289 13.52545 -23.73863 -0 4.520686 -0 -1.047372 -21.90536 21.09083 -3.922216 -2.40755 3.21011 2.007213 7.418972 -7.743708 0.8676906 23.42503 7.886593 4.071834 -22.107 8.557245 6.112064 -18.15021 10.89576 86.77561 36.2394 -21.54298 -0 0 15.22801 -9.311467 8.967019 5.346634 4.866334 -19.22043 -3.293628 -97.37459 39.57731 24.90716 0 0 -21.16486 -9.831921 17.18916 25.25737
0.4634345 102.2961 4.429868 1.01393 -0.816829 0.4066034 2.457645 -21.3238 5.540789 -0 29.09344 -0 -6.031991 -12.36394 -4.322408 -6.3117 13.74983 -22.50191 -0 4.394367 -0 -1.428151 -23.40969 19.83711 -3.805724 -1.920128 3.292578 2.14026 7.342702 -7.918873 1.074668 22.85112 7.811883 4.126546 -22.76957 8.673145 5.737969 -17.9104 10.76379 87.06514 35.72555 -21.92538 -0 0 14.87385 -9.685207 9.305967 5.520589 5.488892 -19.81595 -3.012632 -95.72258 38.42322 23.15466 0 0 -22.38125 -8.22209 16.62947 23.80375
0.5909223 101.3945 6.825557 0.7635999 0.04567566 0.7608999 2.686467 -24.75884 4.970169 -0 24.799 -0 -5.986309 -10.21364 -4.218229 -6.012116 14.20932 -21.39286 -0 4.630068 -0 -2.129125 -24.68909 18.48847 -3.646146 -1.50964 3.288723 2.26457 7.216644 -8.079946 1.229516 22.3338 7.808638 4.250853 -23.36044 8.754125 5.495759 -17.57665 10.6536 87.33831 35.41028 -22.4036 -0 0 14.38391 -10.03491 9.691366 5.609749 6.060829 -20.3807 -2.781996 -94.36236 37.48785 21.62626 0 0 -23.59819 -6.945798 16.20456 22.64513
0.6823904 100.3464 9.721131 0.4598898 0.8991104 1.218593 3.00429 -27.97662 4.343878 -0 20.8551 -0 -6.003565 -7.905208 -4.077595 -5.647243 14.89144 -20.2745 -0 5.371468 -0 -3.186357 -25.61432 16.93922 -3.410993 -1.150918 3.168476 2.375625 7.070101 -8.24864 1.332417 21.86557 7.854111 4.414624 -23.85104 8.781289 5.363954 -17.12699 10.56925 87.65305 35.27167 -22.99012 -0 0 13.69691 -10.46961 10.17392 5.689029 6.534925 -20.92735 -2.638139 -93.08922 36.7037 20.1363 0 0 -24.85358 -5.943219 15.84098 21.74533
0.7226784 99.23426 13.17399 0.07249062 1.681369 1.763788 3.449687 -30.85054 3.715801 -0 17.45771 -0 -6.107094 -5.479421 -3.959709 -5.189198 15.74597 -19.05904 -0 6.842361 -0 -4.579416 -25.97838 15.17689 -3.053449 -0.8374115 2.914637 2.472476 6.938539 -8.435667 1.383164 21.44897 7.917896 4.577594 -24.22184 8.73734 5.321472 -16.56825 10.52179 88.04669 35.25913 -23.66186 -0 0 12.79093 -11.04791 10.76909 5.817319 6.845376 -21.43075 -2.614715 -91.82184 35.99783 18.63478 0 0 -26.08392 -5.178328 15.47784 21.09566
0.6971498 98.16165 17.245 -0.4214767 2.28584 2.359871 4.081158 -33.09489 3.173801 -0 14.87927 -0 -6.301191 -3.115004 -3.936553 -4.615664 16.68623 -17.69743 -0 9.351545 -0 -6.242026 -25.5105 13.26788 -2.51646 -0.5736659 2.522421 2.552145 6.853227 -8.634545 1.384521 21.11162 7.958304 4.679081 -24.44093 8.611028 5.327094 -15.92417 10.52113 88.54781 35.2751 -24.35674 -0 0 11.66766 -11.79639 11.46208 6.043591 6.906045 -21.82497 -2.744526 -90.55887 35.31951 17.15761 0 0 -27.15652 -4.658074 15.07289 20.73509
0.5944226 97.25697 21.97731 -1.019753 2.561596 2.934542 4.948199 -34.25589 2.823466 -0 13.41305 -0 -6.557532 -1.15428 -4.095165 -3.92462 17.55018 -16.18511 -0 13.29327 -0 -8.040518 -23.92295 11.37177 -1.750462 -0.3718817 2.02091 2.6099 6.83764 -8.815977 1.347275 20.90863 7.91922 4.635727 -24.46848 8.404019 5.309197 -15.24147 10.57338 89.16728 35.16613 -24.9644 -0 0 10.36421 -12.70094 12.20063 6.402197 6.62391 -22.00553 -3.041727 -89.37184 34.64673 15.82226 0 0 -27.87943 -4.421798 14.60481 20.73938
0.4114091 96.671 27.36478 -1.667734 2.346843 3.370511 6.021374 -33.76266 2.738343 -0 13.24021 -0 -6.812982 -0.06948592 -4.513095 -3.1622 18.0418 -14.57292 -0 19.10598 -0 -9.766677 -21.02791 9.730235 -0.7574832 -0.2460241 1.509239 2.642138 6.905822 -8.925529 1.29481 20.91269 7.735829 4.360059 -24.27652 8.136356 5.174955 -14.59695 10.68027 89.87811 34.75259 -25.33499 -0 0 8.970184 -13.68922 12.88993 6.895853 5.939571 -21.85979 -3.467363 -88.39607 33.98439 14.81695 0 0 -28.04097 -4.499385 14.07771 21.16736
0.1601534 96.56047 33.31373 -2.234353 1.556573 3.523332 7.101545 -31.11695 2.884265 -0 14.22284 -0 -7.006905 -0.2891339 -5.18126 -2.457045 17.67558 -12.96977 -0 27.1239 -0 -11.16454 -16.93854 8.59851 0.3363854 -0.1958618 1.189383 2.651591 7.066263 -8.893865 1.261777 21.18143 7.35842 3.817065 -23.88419 7.839659 4.861452 -14.09563 10.84177 90.58673 33.93914 -25.32668 -0 0 7.638144 -14.61795 13.40067 7.470342 4.896402 -21.34816 -3.89371 -87.7979 33.34529 14.35294 0 0 -27.50105 -4.822926 13.52657 21.94041
-0.1266465 97.04558 39.61765 -2.521106 0.2957801 3.289472 7.82085 -26.2423 3.10079 -0 15.74689 -0 -7.151487 -1.864035 -5.89529 -2.022401 15.80535 -11.51866 -0 37.23445 -0 -11.98148 -12.27312 8.141588 1.226715 -0.1789676 1.339797 2.648998 7.334569 -8.665979 1.278684 21.70344 6.798599 3.111051 -23.37997 7.52931 4.429079 -13.8482 11.06133 91.09688 32.89392 -24.87308 -0 0 6.57301 -15.30662 13.60761 8.010385 3.702556 -20.61483 -4.121018 -87.70054 32.70479 14.5564 0 0 -26.30609 -5.125759 13.01644 22.68983
-0.3984363 98.13631 45.98216 -2.338978 -1.132569 2.695435 7.84062 -19.78792 3.210192 -0 16.86994 -0 -7.325407 -4.19457 -6.254266 -2.050839 11.8809 -10.34348 -0 48.35993 -0 -12.04054 -8.122092 8.394233 1.517601 -0.09638854 2.162014 2.632985 7.744958 -8.229865 1.346011 22.35788 6.178306 2.521814 -22.86302 7.185812 4.111722 -13.92856 11.34727 91.08929 32.11556 -23.97355 -0 0 6.003342 -15.68461 13.48573 8.411837 2.70868 -19.99633 -4.00395 -88.08329 31.946 15.33545 0 0 -24.72163 -4.975513 12.61005 22.76205
